<mxfile host="app.diagrams.net" agent="Mozilla/5.0 (Windows NT 10.0; Win64; x64; rv:137.0) Gecko/20100101 Firefox/137.0" version="26.2.13">
  <diagram name="Page-1" id="XdszfwGKSBPwa_xwtGpL">
    <mxGraphModel dx="1428" dy="778" grid="1" gridSize="10" guides="1" tooltips="1" connect="1" arrows="1" fold="1" page="1" pageScale="1" pageWidth="827" pageHeight="1169" math="0" shadow="0">
      <root>
        <mxCell id="0" />
        <mxCell id="1" parent="0" />
        <mxCell id="asGeA4VaFhTEA-FwqS4j-7" style="edgeStyle=orthogonalEdgeStyle;rounded=0;orthogonalLoop=1;jettySize=auto;html=1;exitX=1;exitY=0.5;exitDx=0;exitDy=0;entryX=0;entryY=0.5;entryDx=0;entryDy=0;" edge="1" parent="1" source="asGeA4VaFhTEA-FwqS4j-1" target="asGeA4VaFhTEA-FwqS4j-3">
          <mxGeometry relative="1" as="geometry" />
        </mxCell>
        <mxCell id="asGeA4VaFhTEA-FwqS4j-1" value="C2.0" style="ellipse;whiteSpace=wrap;html=1;aspect=fixed;" vertex="1" parent="1">
          <mxGeometry x="110" y="360" width="80" height="80" as="geometry" />
        </mxCell>
        <mxCell id="asGeA4VaFhTEA-FwqS4j-2" value="" style="endArrow=classic;html=1;rounded=0;entryX=0;entryY=0.5;entryDx=0;entryDy=0;" edge="1" parent="1" target="asGeA4VaFhTEA-FwqS4j-1">
          <mxGeometry width="50" height="50" relative="1" as="geometry">
            <mxPoint x="40" y="400" as="sourcePoint" />
            <mxPoint x="100" y="400" as="targetPoint" />
          </mxGeometry>
        </mxCell>
        <mxCell id="asGeA4VaFhTEA-FwqS4j-8" style="edgeStyle=orthogonalEdgeStyle;rounded=0;orthogonalLoop=1;jettySize=auto;html=1;entryX=0;entryY=0.5;entryDx=0;entryDy=0;" edge="1" parent="1" source="asGeA4VaFhTEA-FwqS4j-3" target="asGeA4VaFhTEA-FwqS4j-4">
          <mxGeometry relative="1" as="geometry" />
        </mxCell>
        <mxCell id="asGeA4VaFhTEA-FwqS4j-3" value="C2.1" style="ellipse;whiteSpace=wrap;html=1;aspect=fixed;" vertex="1" parent="1">
          <mxGeometry x="250" y="360" width="80" height="80" as="geometry" />
        </mxCell>
        <mxCell id="asGeA4VaFhTEA-FwqS4j-4" value="S2.1" style="ellipse;whiteSpace=wrap;html=1;aspect=fixed;" vertex="1" parent="1">
          <mxGeometry x="390" y="360" width="80" height="80" as="geometry" />
        </mxCell>
        <mxCell id="asGeA4VaFhTEA-FwqS4j-5" value="S2.2" style="ellipse;whiteSpace=wrap;html=1;aspect=fixed;" vertex="1" parent="1">
          <mxGeometry x="560" y="260" width="80" height="80" as="geometry" />
        </mxCell>
        <mxCell id="asGeA4VaFhTEA-FwqS4j-6" value="C2.2" style="ellipse;whiteSpace=wrap;html=1;aspect=fixed;" vertex="1" parent="1">
          <mxGeometry x="710" y="360" width="80" height="80" as="geometry" />
        </mxCell>
        <mxCell id="asGeA4VaFhTEA-FwqS4j-10" value="" style="endArrow=classic;html=1;rounded=0;exitX=1;exitY=0;exitDx=0;exitDy=0;entryX=0;entryY=0.5;entryDx=0;entryDy=0;" edge="1" parent="1" source="asGeA4VaFhTEA-FwqS4j-4" target="asGeA4VaFhTEA-FwqS4j-5">
          <mxGeometry width="50" height="50" relative="1" as="geometry">
            <mxPoint x="390" y="430" as="sourcePoint" />
            <mxPoint x="440" y="380" as="targetPoint" />
          </mxGeometry>
        </mxCell>
        <mxCell id="asGeA4VaFhTEA-FwqS4j-11" value="" style="endArrow=classic;html=1;rounded=0;exitX=1;exitY=0.5;exitDx=0;exitDy=0;entryX=0;entryY=0;entryDx=0;entryDy=0;" edge="1" parent="1" source="asGeA4VaFhTEA-FwqS4j-5" target="asGeA4VaFhTEA-FwqS4j-6">
          <mxGeometry width="50" height="50" relative="1" as="geometry">
            <mxPoint x="390" y="430" as="sourcePoint" />
            <mxPoint x="440" y="380" as="targetPoint" />
          </mxGeometry>
        </mxCell>
        <mxCell id="asGeA4VaFhTEA-FwqS4j-12" value="C2.E1" style="ellipse;whiteSpace=wrap;html=1;align=center;dashed=1;" vertex="1" parent="1">
          <mxGeometry x="560" y="460" width="80" height="80" as="geometry" />
        </mxCell>
        <mxCell id="asGeA4VaFhTEA-FwqS4j-13" value="C2.F" style="ellipse;shape=doubleEllipse;whiteSpace=wrap;html=1;aspect=fixed;" vertex="1" parent="1">
          <mxGeometry x="690" y="110" width="80" height="80" as="geometry" />
        </mxCell>
      </root>
    </mxGraphModel>
  </diagram>
</mxfile>
